/* XPM */
static char *b74fc283ac6747ffec0f3473890a47f5xw3iihPT25KhVONj[] = {
/* columns rows colors chars-per-pixel */
"64 64 240 2 ",
"   c #2B0706",
".  c #350302",
"X  c #3D0202",
"o  c #3C0908",
"O  c #360A0A",
"+  c #2E1514",
"@  c #2C1B15",
"#  c #2E1519",
"$  c #2D1A1A",
"%  c #341615",
"&  c #331916",
"*  c #34161A",
"=  c #341A1B",
"-  c #3C1C1C",
";  c #391418",
":  c #3C0E11",
">  c #3C231E",
",  c #38251C",
"<  c #3D1E22",
"1  c #2C2725",
"2  c #352425",
"3  c #3C2423",
"4  c #342924",
"5  c #3C2924",
"6  c #3C2529",
"7  c #3C2A2A",
"8  c #34292B",
"9  c #39302F",
"0  c #3B2C31",
"q  c #363635",
"w  c #3C3534",
"e  c #363936",
"r  c #3A3A35",
"t  c #3A353B",
"y  c #353A3C",
"u  c #3B393B",
"i  c #353639",
"p  c #430302",
"a  c #4C0201",
"s  c #430509",
"d  c #480908",
"f  c #530202",
"g  c #5B0203",
"h  c #530904",
"j  c #5A0906",
"k  c #54060A",
"l  c #5B0509",
"z  c #540B0A",
"x  c #5C0B0A",
"c  c #491916",
"v  c #5B1B1C",
"b  c #5A1818",
"n  c #5F110D",
"m  c #640101",
"M  c #6C0101",
"N  c #630904",
"B  c #6C0D0C",
"V  c #690708",
"C  c #740100",
"Z  c #7C0101",
"A  c #7B0A05",
"S  c #7D060A",
"D  c #720A0A",
"F  c #7C0B0B",
"G  c #770707",
"H  c #7D110D",
"J  c #76130E",
"K  c #790D10",
"L  c #6A1B1B",
"P  c #681818",
"I  c #751313",
"U  c #7B1313",
"Y  c #7A1918",
"T  c #42231E",
"R  c #492319",
"E  c #5A201F",
"W  c #7D2019",
"Q  c #461E26",
"!  c #7B1F20",
"~  c #422425",
"^  c #422823",
"/  c #43252A",
"(  c #442A2B",
")  c #4B2C2C",
"_  c #4D2625",
"`  c #532625",
"'  c #532A24",
"]  c #542C2C",
"[  c #5A2B2C",
"{  c #592627",
"}  c #4B312C",
"|  c #46312D",
" . c #5B322C",
".. c #56312A",
"X. c #4C2E31",
"o. c #472D35",
"O. c #582D31",
"+. c #423334",
"@. c #4C3233",
"#. c #453B3A",
"$. c #433A38",
"%. c #523232",
"&. c #5D3C3B",
"*. c #593838",
"=. c #622728",
"-. c #772726",
";. c #633535",
":. c #633B37",
">. c #693A36",
",. c #65363A",
"<. c #643B3B",
"1. c #6A3B3B",
"2. c #6A3639",
"3. c #783536",
"4. c #6F312E",
"5. c #4A423D",
"6. c #5C423E",
"7. c #55423E",
"8. c #65403A",
"9. c #72433E",
"0. c #353C42",
"q. c #493D43",
"w. c #5B3E43",
"e. c #653D41",
"r. c #6B3C40",
"t. c #713E41",
"y. c #4C4543",
"u. c #4D4943",
"i. c #4D444A",
"p. c #4A4848",
"a. c #534344",
"s. c #5B4243",
"d. c #51464A",
"f. c #5C4C4C",
"g. c #524849",
"h. c #54534E",
"j. c #58514A",
"k. c #5A4F51",
"l. c #4D5554",
"z. c #4E5856",
"x. c #545453",
"c. c #5A5353",
"v. c #565559",
"b. c #565858",
"n. c #4D544C",
"m. c #634244",
"M. c #6C4543",
"N. c #6C4A44",
"B. c #6D4B4B",
"V. c #65494A",
"C. c #734444",
"Z. c #7B4444",
"A. c #7B4946",
"S. c #734A4B",
"D. c #7A494A",
"F. c #754748",
"G. c #64534D",
"H. c #6A4D52",
"J. c #774E51",
"K. c #6F5458",
"L. c #840101",
"P. c #8C0101",
"I. c #840A06",
"U. c #8C0906",
"Y. c #830509",
"T. c #8C040A",
"R. c #840B0C",
"E. c #8C0C0B",
"W. c #940202",
"Q. c #9B0202",
"!. c #930906",
"~. c #990904",
"^. c #940509",
"/. c #9C0509",
"(. c #930A0B",
"). c #9B0A0B",
"_. c #83110E",
"`. c #8D130D",
"'. c #93120E",
"]. c #9B110D",
"[. c #931206",
"{. c #830D12",
"}. c #8C0D12",
"|. c #930D12",
" X c #990A12",
".X c #841313",
"XX c #8C1313",
"oX c #831916",
"OX c #8D151A",
"+X c #8C1C1B",
"@X c #871918",
"#X c #931414",
"$X c #9B1413",
"%X c #941A16",
"&X c #9C1916",
"*X c #951519",
"=X c #9B1719",
"-X c #941A1B",
";X c #9B1A1B",
":X c #A30101",
">X c #AB0201",
",X c #A80809",
"<X c #B30302",
"1X c #BB0302",
"2X c #B50B0C",
"3X c #BC0B0B",
"4X c #B50808",
"5X c #A3110D",
"6X c #A8130C",
"7X c #A70E13",
"8X c #A31414",
"9X c #AB1513",
"0X c #A41914",
"qX c #A21A1B",
"wX c #A71719",
"eX c #B71613",
"rX c #B5130E",
"tX c #8B221E",
"yX c #90201E",
"uX c #A5241E",
"iX c #8B1D21",
"pX c #9D1E22",
"aX c #A81C22",
"sX c #8D2122",
"dX c #862826",
"fX c #962725",
"gX c #83332A",
"hX c #893939",
"jX c #963736",
"kX c #872D35",
"lX c #A22223",
"zX c #A72526",
"xX c #A43429",
"cX c #CB0100",
"vX c #C50509",
"bX c #87423E",
"nX c #883D42",
"mX c #884141",
"MX c #954847",
"NX c #825759",
/* pixels */
"y y y u r y u w u w r e t w y y 0.u t t t r +.w u t q u t w u w r q w u u $.r r y y y e r r t t t t t r i y q w y u i e $.w i 0.",
"V.} F.1.1.1.;.>.Z.1.1.<.6.y.i.k.<.{ t.1.>.1.>.>.2.A.C.C.F.D.9.1.<.1.2.<.m.q.5.5.N.F.Z.Z.9.Z.Z.2.2.r.1.[ { [ :.1.C.S.1.:.>.:.w.+.",
"! sXzX7X].0X5X8X8X8X8X-XL 8.y.B.lXeX5X0X0X].0X&X$X$XwX$XqX8X0X$X$X].8XpXL N.r 9.fXeXrXeXeX9X9X9X9X9X0X8X9X7X0X).*X*X'.'.).%XL 2.",
"fXaX4X1X1X1X>X>X3X:X3XQ.N c 5.A.eXcX:X<X:X<X:X>XQ.4X:X4XQ.<XQ.<X:X>XvX~.l R 5.' 6XcXcX1XvX<XvX1X:X1XQ.4X1XvX:X4X:XQ.6X:X<XQ.V v ",
"fX;XQ.Q.:XQ.:XW.P./.L.C h c 7.9.9X<X:XW.Q.Q.P.Q.Q.P.Q./.^.P.Q.:XP.).W.C d T a.A.8X>X:XW.P.~.P.P.W.Q.P.W.:X:XW.:XP.W.!.Z ~.Z h c ",
"fX-XL.W.Q.L.Q./.^.Z {.m p T 7.A.8X>X:X).L.^.L.^.P.^.L.^.L.P.P.W.L.T.L.M d T s.2.$XW./.Z P.^.L.T.Z E.P.^.W.Q.P.P.P.L.U.L.!.C p > ",
"fX%XI.P.P.!.P.W.L.L.{.V . / u.F./.1XW.).P.P.W./.L.L.L.!.L.L.P.P.P.Z Y.m d ~ w r.%XP.^.L.Q.W.Z U.C L.P./.P.W.P. X^.L.U.C ~.Z X ^ ",
"dXoXZ U.E.Z U.U.Z R.C g o 2 d.2.$X4XP.T.Z |.L.T.Z U.C Y.Z Z L.I.M F G N s 6 t e..XW.U.Z P.~.Z A C Y.L.^.P.E.C }.Z Y.E.L.E.M s ~ ",
"3.Y U Z M m m D g M D l O , t B.F P.C C m G C C G M m N B m D M g B j j . ( t &.@XZ Z M Z C m D m V M A m M m B m g M K C B X Q ",
"2.c l f z p X p p p p .   4 t w.z m x a f f f h h f p s p p p X X X X .   3 u 7.P N f l f a k z h a z a a p a k p d k a p X . o.",
"w.a.3 ~ , 3 < 6 6 < @ @ @ 1 w c.s./ ~ 3 ~ ~ % & + % = ( 3 # = # # ( 2 7 | , 5.7.( < 6 2 ~ ~ 0 6 ~ ( - , & @ $ $ = 5 3 7 2 5 8 8 ",
"F.{ [ '  .<.e.1.r.[ ) ' .. .<.X.y.i.a.m.<.:.1.[ O.{ mX;.1.<.] [ ,.,.<.&.8.8.9...<.F.S.S.S.S.NXNXD.C.F.:.6.#.q.#.C.` D.<.&.r.t.[ ",
"wX].9X$X'.#X#X$X(.%XXXXX%X}..XP 8.G.3.dXfXaX8X$X$X;X$X$X$X$X].$X$X&X#X`.#X#X`.E.`.%XXXE.[.[.].]. X X8XOXv m.#.C.uXeX0X#X&X$X8X8X",
"1X>X:X4XQ.P.>XW.:XW.Q.P.Q.W.).g } &.hXlXP.:X4X:X4XW.:X>XQ.Q.rX:X>XW.W.W.:XQ.:XW.:XW.2XP.4XQ.:X>X3X:X4X Xa ) a.=.eXcX:X<XQ.4X>X<X",
"P.,XQ.Q.L.P.P.Z ^.W.L.L./.^.M p 2 e.kX-X).P.Q.P./.Q.P.W.L.Q.L.Z P.!.L.!.L.^.L.).^.P.L.^.!.W.P.W.W.W.W.M s @.a.Z.6X1XW.Q.P.P.Q.:X",
"L.W./.P.U.C E.Z P.P.P.Z W.T.M p 6 X.kX-XZ !.W.P.P.P.Z P.L.Z R.Y.Z ^.L.Z L.L.P.L.U.M P.L.!.L.P.L.!.!.Z V . < q.1.$XQ.:X/.!.P.W.P.",
"!.P.W.^.P.Z Z I.L.P.U.C W.L.m X 3 @.gXOXZ !.^.P.^.Z P.E.M M S Z L.^.Z L.L.E.Z E.A M E.Z ^.L.L.C U.Z ^.C X ~ w <.$X<XW./.L.!.P.L.",
"L.U.L.E.C C A A Z I.C A T.E.N X 5 #.MXsX{.C T.L.!.P.Z C g B C C !.L.I.M Z E.C Y.m A A C L.#XM A R.Z E.M p & $.&.OXW.).T.C E.Z Z ",
"C OXm g f V M G C R.m g K V l X 7 s.t.Y H C R.M C Y.C F M M D M C S M S C A C A G m F M C C g m F C G N . & $.B..XT.G C g m F G ",
"f a p d X p a f f f a d a p s   w a.D.P j l f l V N g h f k j f g g f f f f f k a f f k k f k k f f f .   @ u.X.L V a a p p l a ",
"2 6 6 * 3 7 3 * < * < 6 ~ * % 4 u u.w 6.} R > ^ < 3 3 2 o.o.%...) ~ / ~ * & = $ < < ~ 6 * = * * ~ ~ ^ 5 4 r i.v.w.- ~ 6 , , 7 6 ",
"H.H.,.O.[ 1.D.` t.[ ,.<.[ [ [ [ :.<.F.<.8.>. .'  .O.*.+.q.i.&.8.F.=.Z.2.;.[ ] [ [ 2.,.r.S.%.O.[  .<.:.<.N.<.M.[ M.*.[ ,.B.6.s.q.",
"hXdXaX8X8X$X$X0X0X$X$X#X#X$X~.'.'.'.(.$XU.%X%XXX*X|.K =.q.H.bXtXzX5X8XwX$X].0X8XwX7X8X%X`.`.#X`.OXXXXXXX#X%X|.XX#X#X}.}.OXY v t.",
"xXuXQ.<X<XQ.4XW.>XQ.>XQ.>XQ.>X4XQ.:XQ.,XQ.,X).P.<X,XL.f X.s.hXuX>XQ.vX>X>X:X>X<X:X<X:X:XP.P.Q.W.P.W.Q.W.Q.:X:XQ.:XW.Q.,XL.R.a b ",
"_.lX).!.:XQ.W.P.Z P.:X:XQ.W.Q.:XP.Z ^.P./.P.Z L.Q.P.`.a 6 w.MX%X].Q.Q.P.Q.P.P.P.Q.W.L.W.Z P.).Z ^.L.^.P.W.W.^.P.~.Q.W.W.L.M . ~ ",
"fXoXZ !./.P.P.M `.Z W.P.^.W.W.W.Z Y.T.L.P.!.Z C L.U.M f Q H.MX-X$XP.~.L.^.Z ^.L.W.^.L.E.L.E.L.Z U.Z L.).^.L.W.P./.^.L.U.C N . ~ ",
"dXoXE.L.U.C E.C C L. XL.C Z !.L.Y.M P.).Z (.Y.C [.C M a 6 H.MX+XZ ).L.^.P.Z P.^.L.U.C I.M Z _.Z Z Z L.L.W.W.^.L.W.L.P.E.Z g . 3 ",
"jX@XC C R.M Z Z XXC XXM R.C (.Z C S E.L.C R.M Y.Z C U p < w.nXiX-XZ !.L.U.L.E.L.Z E.Z R.M M M m H M R.M (.C (.T.L.Z m M A N s 3 ",
"gXW R.C M M M m M m M M A m G Z M J m M m M K M A M l X 0 @.nXiXR.Z I.C Z M C C C C M G C F m U g m U g C Z m .XM R.m Y M N . ~ ",
">.L I g l z z a h f h h f x g m f a p d d p k a a a o O 1 +.Z.P l g l g g h f z h g l l f l a k a d d j a f k a f f p a n p O 3 ",
"6.6._ ( 2 6 2 ( , ~ > 5 , , ~ ~ ^ 2 3 3 o.@.( ~ 3 ^ 2 8 8 y.w.s.3 > ~ ~ - ^ 5 2 = & * % * 6 @.X.X.6 @ & & T 3 3 2 , / / ~ ~ 8 1 ",
"9.A.9.N.S.e.,.[ 1.] | +.u.c.NXNXC.S.F.1.1.,.,. .[ [ *.) O.*.M.:.<.8.C.[ C.8.V.6.q.w %.[ *.<.M.D.,.1.*.` ;.>.1.<.N.] C.1.1.,.B.%.",
"(.'.[.).#X|.$X).).@Xv &.+.N.-X5X=X&X=X=X*X;X$X(.$X(.*XOXXXXX'.'.XX`.`.'.'.XX.XL s.V.Z.dXpX$X;X#X&X$X;X;X;X&X'.#X`.XXXXXX#X%X|.#X",
":X>X>X>X:X4X>X>X2X^.a %.7.{ 0X<XQ.>XQ.>X>XP.:XQ.:X>XP.Q.W.P.Q.:XP.~.Q.W.:XW.~.g ) s.mX#X:X:X:XW.>X>XP.:XQ.Q.W.:XW.Q.W.:XW.Q.W.Q.",
"^.P.Q.>XQ.:XW.,XP.C X , u.D.-XW.:XW.W./.P.^.W.P./.P.P.Z L.P.Q.W.P.).Z P.W.Z E.f ) V.bXyX XL.Q.P.Q.Q.W.Q.Q.:XP.P.P.P.P.Q.P./.P.P.",
"T.P.Q.Q.W./.P.P.E.m . 5 y.[ -XL./.W.L.^.U.L.U.Z !.P.E.M E.C P.P.P.L.L.Y.).Z _.a @.K.MXtXE.L.).L.~.P.Q.P.~.W.L.U.L.W.P.).W.L.U.C ",
"/.W.L.W.W.Q.^.L.L.M . @.5.F.;X:XL.^.L.(.Z Z U.P.P.L.Z Y.R.C E.P.Z T.Y.Z P. XC p } B.MX%XL.~.W.P./.L.W.W.L.L.).P.^.P.P.P.L.L.Z I.",
"^.T.L.E.P.W.L.Y.R.N . } a.1.;XL.^.L.C Y.`.Z L.L.U.P.Y.Z C M C T.Z T.I.Z }.Z K p | 8.bX%XI.L.~.W.L.!.W.P.L.U.L.P.L.^.L.'.Z Z I.Z ",
"m D G F M G F C M x . } a.&.U Z (.E.C .XC C XXC I.C _.m F M R.C M G C _.R.M B p 5 6.hXoX_.M E.Z U.T.P.U.P.E.Z XXZ I.C A C E.XXM ",
"X X a a a a a p p X   2 g.7.b N m g N f f j f g g f f f f f f l f h a a a l X . 2 a.2.L f h l l m m g M m g N g g l f f g f f f ",
"6 ~ > , T T 5 5 5 3 8 0 q.c.7.3 ; ; % * 3 3 } @.X.~ & % & < # ( 3 6 , 5 3 5 5 4 u i.a.s., 5 3 ~ } @.&.} 3 6 * ; * 3 > ~ 3 ~ Q Q ",
"H.e.9. .8.' ) <.,.O.[ O.[ r.8.] O.{ M.,.<.<.<.C.S.,.e.] [ ( S.w.y.d.f.) 8.` :.%.e.e.M.>.9.' K.<.B.S.NXM.N.<.,.O.F.1.F.8.S.%.H.o.",
"-.dX-X$X$X%X;X;X-XE.*X}.|.*XOX.XXX-XE.`.`.#X-X#XXXXX}.#XXX+X.XP X.V.-.fXaXqX%X-X;X;X$X&X'.XXXXOX@X+X#X'.`.XXXXOX}.}.XX'.XXoXb 1.",
"jX*XQ.Q.Q.:XW.Q.:XQ.:X:XQ.Q.P.W.Q.L./.W.Q.W.Q.P.:XP.:X:XW.L.^.f ] e.jXaX>X>XP.:XP.Q.P.:XW.Q.L./.W.L.Q.Q.W.Q.W.P.,XW.:XP.W.'.a c ",
"fX+XE.L./.W.P./.W.W.P.!.L.P.L./.U.Z !.C W.^.L.Z T.L.).L.^.L.Y.a ~ w.kXaXP.Q.Z Z Z L.C I.Z P.I.(.C P.L.W.P.P.L.).P.L.W./.Z V X R ",
"fX-XZ Z P.L.W.Z Z ).Z P.Y.Z L.^.C R.Z P.Z L.Y.M R.C L.Z P.I.M p / o.3.@XP.W.C M Z `.Z M E.L.M Y.}.C T.L.Z (.Z T.L.!.P.P.Z I . 3 ",
"Y iXE.P.~.P.C |.L.L.!.U.L.U.C A XXM U.C P.U.Z I.I.Z ).^.).C D p 3 @.3.tXU.L.W.T.Z S M }.Z P.Z Z m R.Z U.Z L.U.P.U.L.L.!.L.U . 5 ",
"jXsXE.Z P.^.Z R.C U.Z !.Z U.C R.M M R.M Y.Z R.C A C P.Z L.C J p @ | hXtXE.Z L.T.C G C T.C R.M I.M R.C Z Z U.Z Z E.Z P.P.Z M . ~ ",
"Y tX{.C T.C Y.C A S Z E.Z Z S H F M I M m m I m H C Y.A _.M I p @ } nXiXC }.C S C {.m C Y.G M S M F M R.M H C _.C F C Y.C L X T ",
"mXP f l g l g g f g g f f f f f f a f a a d p a f f f p a d p . , a.F.P l l l l f x f f j f f g g f f f a a a a f a f f a X   , ",
"+.w.5 2 ~ ~ 3 ( ( 3 ~ 3 @.%.@.3 # $ & & 3 ~ 5 @ & & % > ~ * $ 2 8 p.+.6.6 ~ ~ 3 ( < - % @ > ) ] / ( + , ( 3 3 * = * < 3 3 4 4 1 ",
"S.] J.` F.,.F.;.<.*.:.S.J.J.B.<.S.| c.5.G.*.:.] =.{ ;.<.C.>.,.[ <.6.B.] C.:.:.&.<.,.>.:.6.N.V.k.c.g.e.>.,.<.] ` : c _ ] <.m.N.6.",
"%X=X#X=X;X'.#X#X#X#XXXE.-X+X`.#X.XL 6.G.4.dXpXwX8X].;X#X;XqX=X#XXX.XOX#X#X'.XX%XXX*XXXXX@XP v 8.$.M.fX7XpX-X&X%X#XXXXXXX+X.XOXiX",
"Q.>XW.:XQ.L.Q.P.:XQ.6XW.Q.P.Q.P.^.f > 7.gX;XQ.<X>X>XP.~.L.:XQ.:XP.Q.P.Q.Q.,XP.Q.L.W.P.Q.L.C p ) y.9.wX<XP.Q.:XP.Q.P.Q.P.Q.P.,XP.",
"Q.P.L.U.L.!.L.P.L.Z U.Z L.Z L.C Z f 3 6.gX-XP.Q.P.!.Z C C L.P.P.W.^.L.P.!.Z P.L.Z Y.Z !.C I X o.y.S.%XP.Q.L./.P.Q.P.P.~.L.U.L.C ",
"/.P.C Z E.C I.C L.E.Z C I.P.C Y.V p 7 s.-.-XZ L.Z (.C C C _.C E.C E.E.C Y.C U.Z Z C Z Z C m O < y.S.-XP.!.Z L./.!.P.P.L.Z C C L.",
"P.^.Z I.C C I.C U.P.^.C Z C C E.m p 6 w.-.+X}.M Z E.C R.M R.Z I.C E.Z Y.C M R.C }.Y.M M S N X / i.B.;X:XZ C ).P.L.Z !.G U.C Z (.",
"L.P.L.U.C _.Z P.E.C E.L.C P.E.Z M p 2 s.-.+Xm R.U.Z |.L.C S C Z M I.Z {.M Z Z Z Y.Z M G C m X 3 i.r.*XP.E.A U.L.E.P.Z Z C I.Z E.",
"Z (.Z Z C I.Y.C E.G Z C E.C (.C J p 3 s.3.iXM U.L.U.C C G A M T.C G C F Z C ^.L.C A M I.M B . 5 e <.-XL.R.M C C I.Z E.C M C E.C ",
"M U g I m m B N M V I m Y m M B x p 2 s.mX-.U m C F m I g N M F M Y g g Y M Z _.g I M D m n   4 y *.dXC m g I g _.C F M Y m K M ",
"d . s X s X X s s . X X p d X s X   7 5.:.E X X X X . X X s X d p p d o X p d p s s d p d     $ u.G.v p p o o X s s p X X o s X ",
"2 ( ~ 3 ~ ~ 6 3 7 3 ( 3 6 < ~ ~ ~ 2 1 y.G.s.) | | 3 , ^ ( 3 ~ Q ( > T , > > ~ # ; ; ; ; > $ $ $ e 5.<._ / / < 6 < * < c * * ^ > ",
"w c.+.H.$.+.w y.u.y.u.y.G.j.+.5.i.i.p.l.c.k.x.x.u.5.g.c.p.i.i.H.a.i.$.7.5.u.$.$.t q.w u 5.p.#.i r c.a.a.0 c.y.p.d.a.#.9 #.y.u.y.",
"x.n.v.c.f.c.x.x.z.l.x.x.c.h.c.h.v.v.l.z.v.v.z.z.x.c.c.x.z.l.v.x.v.x.b.n.h.h.x.x.x.v.x.x.l.l.v.c.c.k.h.c.v.x.n.n.x.v.x.c.c.v.h.b."
};
